<svg width="17" height="18" viewBox="0 0 17 18" fill="none"  xmlns="http://www.w3.org/2000/svg">
<path d="M3.176 0.439999L6.728 0.295999C7.704 0.295999 8.664 0.599999 9.608 1.208C10.088 1.528 10.48 1.984 10.784 2.576C11.104 3.168 11.264 3.848 11.264 4.616C11.264 5.96 10.872 7.064 10.088 7.928C9.304 8.776 8.376 9.384 7.304 9.752C7.768 10.008 8.224 10.312 8.672 10.664C9.888 11.688 10.776 12.664 11.336 13.592C11.912 14.52 12.2 15.344 12.2 16.064C12.2 16.784 11.864 17.144 11.192 17.144C10.696 17.144 10.232 16.656 9.8 15.68C9.624 15.264 9.32 14.72 8.888 14.048C8.472 13.36 7.992 12.72 7.448 12.128C6.312 10.912 5.144 10.088 3.944 9.656C3.96 10.952 4 12.256 4.064 13.568C4.128 14.88 4.16 15.68 4.16 15.968C4.16 16.24 4.048 16.504 3.824 16.76C3.616 17.016 3.344 17.144 3.008 17.144C2.672 17.144 2.392 17.016 2.168 16.76C1.96 16.504 1.856 16.248 1.856 15.992C1.856 15.736 1.888 14.848 1.952 13.328C2.032 11.808 2.072 10.336 2.072 8.912C2.072 7.488 2.056 6.32 2.024 5.408C1.992 4.48 1.952 3.736 1.904 3.176C1.872 2.616 1.856 2.256 1.856 2.096H1.424C1.168 2.096 0.936 2.016 0.728 1.856C0.536 1.68 0.44 1.464 0.44 1.208C0.44 0.935999 0.536 0.719999 0.728 0.559999C0.936 0.383999 1.136 0.295999 1.328 0.295999C1.536 0.295999 1.808 0.319999 2.144 0.368C2.496 0.415999 2.84 0.439999 3.176 0.439999ZM5.552 1.952L4.16 1.976C4.16 2.152 4.136 2.504 4.088 3.032C3.992 4.44 3.944 6.208 3.944 8.336C4.744 8.56 5.328 8.672 5.696 8.672C6.064 8.672 6.432 8.632 6.8 8.552C7.184 8.456 7.592 8.304 8.024 8.096C8.472 7.888 8.84 7.56 9.128 7.112C9.416 6.648 9.56 6.112 9.56 5.504C9.56 4.288 9.168 3.392 8.384 2.816C7.616 2.24 6.672 1.952 5.552 1.952ZM15.1299 17.144C14.7459 17.144 14.4419 17.04 14.2179 16.832C13.9939 16.624 13.8819 16.32 13.8819 15.92C13.8819 15.504 14.0179 15.152 14.2899 14.864C14.5779 14.576 14.9139 14.432 15.2979 14.432C15.6979 14.432 16.0099 14.544 16.2339 14.768C16.4739 14.976 16.5939 15.288 16.5939 15.704C16.5939 16.104 16.4499 16.448 16.1619 16.736C15.8739 17.008 15.5299 17.144 15.1299 17.144Z" fill="black"/>
</svg>
